<?xml version="1.0" encoding="iso-8859-1"?>
<!-- Uploaded to: SVG Repo, www.svgrepo.com, Generator: SVG Repo Mixer Tools -->
<!DOCTYPE svg PUBLIC "-//W3C//DTD SVG 1.1//EN" "http://www.w3.org/Graphics/SVG/1.1/DTD/svg11.dtd">
<svg fill="#000000" version="1.1" id="Capa_1" xmlns="http://www.w3.org/2000/svg" xmlns:xlink="http://www.w3.org/1999/xlink" 
	 width="800px" height="800px" viewBox="0 0 408.302 408.301"
	 xml:space="preserve">
<g>
	<path d="M396.185,149.843l0.18-0.288l-82.121-88.631H89.928l-75.7,86.181l-5.029,5.789l0.441,0.429
		C3.39,162.964,0,174.253,0,185.794v101.823c0,32.948,26.823,59.76,59.774,59.76h288.768c32.948,0,59.76-26.806,59.76-59.76V185.8
		C408.29,172.734,404.032,160.184,396.185,149.843z M300.348,92.75l30.841,33.279h-83.647V157.4
		c0,17.579-17.51,20.209-27.946,20.209h-30.891c-10.439,0-27.953-2.63-27.953-20.209v-31.372H75.096l29.246-33.279H300.348z"/>
</g>
</svg>