<svg width="18" height="16" viewBox="0 0 18 16" xmlns="http://www.w3.org/2000/svg" fill="#404145"><path fill-rule="evenodd" clip-rule="evenodd" d="M0.75 1C0.75 0.585786 1.08579 0.25 1.5 0.25H16.5C16.9142 0.25 17.25 0.585786 17.25 1V4C17.25 4.41421 16.9142 4.75 16.5 4.75H12.25V10C12.25 10.2883 12.0847 10.5511 11.8249 10.676C11.565 10.8009 11.2566 10.7658 11.0315 10.5857L9 8.96047L6.96852 10.5857C6.74339 10.7658 6.43496 10.8009 6.17511 10.676C5.91526 10.5511 5.75 10.2883 5.75 10V4.75H1.5C1.08579 4.75 0.75 4.41421 0.75 4V1ZM7.25 4.75V8.43953L8.53148 7.41435C8.80539 7.19522 9.19461 7.19522 9.46852 7.41435L10.75 8.43953V4.75H7.25ZM2.25 3.25V1.75H15.75V3.25H2.25ZM2.5 5.25C2.91421 5.25 3.25 5.58579 3.25 6V14.25H14.75V6C14.75 5.58579 15.0858 5.25 15.5 5.25C15.9142 5.25 16.25 5.58579 16.25 6V15C16.25 15.4142 15.9142 15.75 15.5 15.75H2.5C2.08579 15.75 1.75 15.4142 1.75 15V6C1.75 5.58579 2.08579 5.25 2.5 5.25Z"></path></svg>