<svg width="16" height="16" viewBox="0 0 16 16" xmlns="http://www.w3.org/2000/svg"><path d="M4.50001 11.4999C6.40001 13.3999 9.60001 13.3999 11.5 11.4999C12.2 10.7999 12.7 9.7999 12.9 8.7999L14.9 9.0999C14.7 10.5999 14 11.8999 13 12.8999C10.3 15.5999 5.90001 15.5999 3.10001 12.8999L0.900012 15.0999L0.200012 8.6999L6.60001 9.3999L4.50001 11.4999Z"></path><path d="M15.8 7.2999L9.40001 6.5999L11.5 4.4999C9.60001 2.5999 6.40001 2.5999 4.50001 4.4999C3.80001 5.1999 3.30001 6.1999 3.10001 7.1999L1.10001 6.8999C1.30001 5.3999 2.00001 4.0999 3.00001 3.0999C4.40001 1.6999 6.10001 1.0999 7.90001 1.0999C9.70001 1.0999 11.5 1.7999 12.8 3.0999L15 0.899902L15.8 7.2999Z"></path></svg>