<svg width="16" height="16" viewBox="0 0 16 16" xmlns="http://www.w3.org/2000/svg" fontWegiht="700"><path d="M11.89 14.75H1C0.59 14.75 0.25 14.41 0.25 14V8C0.25 7.59 0.59 7.25 1 7.25H3.46L6.05 0.72C6.16 0.43 6.44 0.25 6.75 0.25H7.67C8.59 0.25 9.34 0.98 9.34 1.87V5.45H13.17C14 5.45 14.78 5.84 15.27 6.48C15.73 7.1 15.87 7.87 15.66 8.6L14.39 12.93C14.08 13.99 13.06 14.74 11.9 14.74L11.89 14.75ZM4.75 13.25H11.89C12.38 13.25 12.81 12.95 12.94 12.52L14.21 8.19C14.32 7.81 14.16 7.52 14.06 7.39C13.85 7.12 13.53 6.96 13.16 6.96H8.58C8.17 6.96 7.83 6.62 7.83 6.21V1.87C7.83 1.81 7.76 1.75 7.66 1.75H7.25L4.74 8.08V13.25H4.75ZM1.75 13.25H3.25V8.75H1.75V13.25V13.25Z"></path></svg>
