<svg width="16" height="16" viewBox="0 0 16 16" xmlns="http://www.w3.org/2000/svg"><path d="M9.25533 14.75H8.33533C7.41533 14.75 6.66533 14.03 6.66533 13.13L6.66533 9.55H2.83533C2.00533 9.55 1.22533 9.16 0.735326 8.52C0.275326 7.9 0.135326 7.13 0.345326 6.4L1.62533 2.06C1.93533 1 2.95533 0.25 4.11533 0.25L15.0053 0.25C15.4153 0.25 15.7553 0.59 15.7553 1V7C15.7553 7.41 15.4153 7.75 15.0053 7.75H12.5453L9.95533 14.28C9.84533 14.57 9.56533 14.75 9.25533 14.75ZM4.11533 1.75C3.62533 1.75 3.19533 2.05 3.06533 2.48L1.79533 6.81C1.68533 7.19 1.84533 7.48 1.94533 7.61C2.15533 7.88 2.47533 8.04 2.84533 8.04H7.42533C7.83533 8.04 8.17533 8.38 8.17533 8.79L8.17533 13.12C8.17533 13.17 8.24533 13.24 8.34533 13.24H8.75533L11.2653 6.91V1.75L4.11533 1.75ZM12.7553 6.25H14.2553V1.75L12.7553 1.75V6.25Z"></path></svg>